<?xml version="1.0" ?>
<!-- Uploaded to: SVG Repo, www.svgrepo.com, Generator: SVG Repo Mixer Tools -->
<svg width="800px" height="800px" viewBox="0 0 32 32" xmlns="http://www.w3.org/2000/svg">
<title/>
<g data-name="09-Arrow-direction-pointer" id="_09-Arrow-direction-pointer">
<path d="M22.6,1a14.559,14.559,0,0,0-5.623,3.732,11.476,11.476,0,0,1,2,5.5" style="fill:none;stroke:#000000;stroke-linecap:round;stroke-linejoin:round;stroke-width:2px"/>
<path d="M16.981,4.732a12.394,12.394,0,0,1,3.582.8A12.163,12.163,0,0,1,23.78,7.311a12.285,12.285,0,0,1,2.6,2.617,12.461,12.461,0,0,1,1.775,3.245,13.285,13.285,0,0,1,.5,7.689A13.081,13.081,0,0,1,24.8,27.51,12.185,12.185,0,0,1,21.617,29.7a12.014,12.014,0,0,1-3.682,1.142A14.743,14.743,0,0,1,16.01,31a14.584,14.584,0,0,1-1.926-.158A12.052,12.052,0,0,1,10.4,29.705a12.147,12.147,0,0,1-3.19-2.181A12.542,12.542,0,0,1,4.787,24.5,13.193,13.193,0,0,1,11.943,5.343" style="fill:none;stroke:#000000;stroke-linecap:round;stroke-linejoin:round;stroke-width:2px"/>
</g>
</svg>